%
M48
M72
T01C0.03150
T02C0.03937
T03C0.04331
T04C0.04400
T05C0.04724
%
T01
X57800Y31800
X67800Y31800
X77800Y31800
X87800Y31800
X87800Y61800
X77800Y61800
X67800Y61800
X57800Y61800
X58800Y83800
X68800Y83800
X78800Y83800
X88800Y83800
X115800Y74800
X115800Y64800
X88800Y113800
X78800Y113800
X68800Y113800
X58800Y113800
X48800Y128800
X48800Y138800
T02
X107800Y113800
X127800Y103800
X107800Y93800
T03
X58800Y156800
X28800Y156800
T04
X13800Y12800
X143800Y12800
X142800Y156800
X13800Y157800
T05
X82115Y141879
X101800Y141879
X121485Y141879
X26800Y53643
X26800Y33957
X107957Y26800
X127643Y26800
M30
