G75*
%MOIN*%
%OFA0B0*%
%FSLAX25Y25*%
%IPPOS*%
%LPD*%
%AMOC8*
5,1,8,0,0,1.08239X$1,22.5*
%
%ADD10C,0.02000*%
%ADD11C,0.01200*%
%ADD12R,0.06299X0.07087*%
%ADD13R,0.06299X0.07874*%
%ADD14OC8,0.10000*%
%ADD15C,0.07874*%
%ADD16C,0.01600*%
%ADD17C,0.03000*%
D10*
X0002800Y0002800D02*
X0002839Y0167800D01*
X0154501Y0167761D01*
X0154501Y0002800D01*
X0002800Y0002800D01*
X0050800Y0027800D02*
X0050800Y0050312D01*
X0062312Y0050312D01*
X0067800Y0055800D01*
X0067800Y0061800D01*
X0077800Y0061800D01*
X0077800Y0072312D01*
X0078288Y0072800D01*
X0072800Y0072800D01*
X0070800Y0070800D01*
X0041312Y0070800D01*
X0041824Y0071312D01*
X0035800Y0079800D02*
X0048800Y0079800D01*
X0052800Y0075800D01*
X0066800Y0075800D01*
X0068800Y0077800D01*
X0068800Y0083800D01*
X0078288Y0084800D02*
X0078288Y0072800D01*
X0078800Y0073312D01*
X0078800Y0071800D01*
X0077800Y0070800D01*
X0077800Y0072288D02*
X0078288Y0072800D01*
X0078800Y0083800D02*
X0078288Y0084800D01*
X0071800Y0105800D02*
X0043312Y0105800D01*
X0043800Y0107288D02*
X0043800Y0113800D01*
X0040800Y0116800D01*
X0024800Y0116800D01*
X0020800Y0112800D01*
X0020800Y0077800D01*
X0028800Y0070800D01*
X0030288Y0070800D01*
X0035800Y0079800D02*
X0032288Y0083312D01*
X0032288Y0088800D01*
X0032288Y0105800D01*
X0071800Y0105800D02*
X0078800Y0112800D01*
X0078800Y0113800D01*
X0087800Y0061800D02*
X0102800Y0061800D01*
X0108800Y0055800D01*
X0108800Y0053288D01*
X0109288Y0052800D01*
X0101800Y0040800D02*
X0083800Y0040800D01*
X0077800Y0035800D01*
X0077800Y0031800D01*
X0067800Y0031800D02*
X0067800Y0026800D01*
X0063800Y0022800D01*
X0055800Y0022800D01*
X0050800Y0027800D01*
X0050800Y0050312D02*
X0050312Y0050800D01*
X0039288Y0050800D02*
X0029643Y0050800D01*
X0026800Y0053643D01*
X0101800Y0040800D02*
X0107957Y0034643D01*
X0107957Y0026800D01*
D11*
X0142400Y0027539D02*
X0142400Y0029941D01*
X0143201Y0030742D01*
X0144001Y0030742D01*
X0144802Y0029941D01*
X0144802Y0027539D01*
X0142400Y0027539D02*
X0147204Y0027539D01*
X0147204Y0029941D01*
X0146403Y0030742D01*
X0145603Y0030742D01*
X0144802Y0029941D01*
X0142400Y0033064D02*
X0142400Y0034665D01*
X0142400Y0033865D02*
X0147204Y0033865D01*
X0147204Y0033064D01*
X0145603Y0037548D02*
X0145603Y0039149D01*
X0144802Y0039950D01*
X0142400Y0039950D01*
X0142400Y0037548D01*
X0143201Y0036747D01*
X0144001Y0037548D01*
X0144001Y0039950D01*
X0144802Y0042272D02*
X0145603Y0043073D01*
X0145603Y0045475D01*
X0144001Y0044674D02*
X0144001Y0043073D01*
X0144802Y0042272D01*
X0142400Y0042272D02*
X0142400Y0044674D01*
X0143201Y0045475D01*
X0144001Y0044674D01*
X0142400Y0047797D02*
X0142400Y0050999D01*
X0142400Y0047797D02*
X0145603Y0050999D01*
X0145603Y0047797D01*
X0144802Y0053321D02*
X0143201Y0053321D01*
X0142400Y0054122D01*
X0142400Y0056524D01*
X0145603Y0056524D02*
X0145603Y0054122D01*
X0144802Y0053321D01*
X0145603Y0058846D02*
X0145603Y0062049D01*
X0142400Y0058846D01*
X0142400Y0062049D01*
X0143201Y0064371D02*
X0144001Y0065171D01*
X0144001Y0067573D01*
X0144802Y0067573D02*
X0142400Y0067573D01*
X0142400Y0065171D01*
X0143201Y0064371D01*
X0145603Y0065171D02*
X0145603Y0066773D01*
X0144802Y0067573D01*
X0144001Y0069895D02*
X0145603Y0072297D01*
X0144001Y0069895D02*
X0142400Y0072297D01*
X0142400Y0069895D02*
X0147204Y0069895D01*
X0147204Y0080024D02*
X0142400Y0080024D01*
X0144001Y0081625D01*
X0142400Y0083227D01*
X0147204Y0083227D01*
X0144802Y0085549D02*
X0143201Y0085549D01*
X0142400Y0086349D01*
X0142400Y0087951D01*
X0143201Y0088752D01*
X0144802Y0088752D01*
X0145603Y0087951D01*
X0145603Y0086349D01*
X0144802Y0085549D01*
X0140799Y0091074D02*
X0140799Y0091874D01*
X0141599Y0092675D01*
X0145603Y0092675D01*
X0147204Y0092675D02*
X0148005Y0092675D01*
X0145603Y0095557D02*
X0144802Y0094757D01*
X0143201Y0094757D01*
X0142400Y0095557D01*
X0142400Y0097959D01*
X0142400Y0100281D02*
X0142400Y0101883D01*
X0142400Y0101082D02*
X0145603Y0101082D01*
X0145603Y0100281D01*
X0147204Y0101082D02*
X0148005Y0101082D01*
X0145603Y0097959D02*
X0145603Y0095557D01*
X0144802Y0103965D02*
X0143201Y0103965D01*
X0142400Y0104765D01*
X0142400Y0106367D01*
X0144001Y0107167D02*
X0144001Y0103965D01*
X0144802Y0103965D02*
X0145603Y0104765D01*
X0145603Y0106367D01*
X0144802Y0107167D01*
X0144001Y0107167D01*
X0143201Y0109489D02*
X0142400Y0110290D01*
X0142400Y0112692D01*
X0145603Y0112692D02*
X0145603Y0110290D01*
X0144802Y0109489D01*
X0143201Y0109489D01*
X0142400Y0115014D02*
X0147204Y0115014D01*
X0145603Y0115815D02*
X0145603Y0117416D01*
X0144802Y0118217D01*
X0142400Y0118217D01*
X0144802Y0115014D02*
X0145603Y0115815D01*
X0144802Y0120539D02*
X0143201Y0120539D01*
X0142400Y0121339D01*
X0142400Y0122941D01*
X0143201Y0123741D01*
X0144802Y0123741D01*
X0145603Y0122941D01*
X0145603Y0121339D01*
X0144802Y0120539D01*
X0145603Y0126063D02*
X0143201Y0126063D01*
X0142400Y0126864D01*
X0143201Y0127665D01*
X0142400Y0128465D01*
X0143201Y0129266D01*
X0145603Y0129266D01*
X0144802Y0131588D02*
X0145603Y0132389D01*
X0145603Y0134791D01*
X0144001Y0133990D02*
X0144001Y0132389D01*
X0144802Y0131588D01*
X0142400Y0131588D02*
X0142400Y0133990D01*
X0143201Y0134791D01*
X0144001Y0133990D01*
X0144001Y0137113D02*
X0145603Y0139515D01*
X0145603Y0141717D02*
X0145603Y0142517D01*
X0142400Y0142517D01*
X0142400Y0141717D02*
X0142400Y0143318D01*
X0142400Y0139515D02*
X0144001Y0137113D01*
X0142400Y0137113D02*
X0147204Y0137113D01*
X0147204Y0142517D02*
X0148005Y0142517D01*
D12*
X0089312Y0072800D03*
X0078288Y0072800D03*
X0109288Y0052800D03*
X0120312Y0052800D03*
D13*
X0050312Y0050800D03*
X0039288Y0050800D03*
X0041312Y0070800D03*
X0030288Y0070800D03*
X0032288Y0088800D03*
X0043312Y0088800D03*
X0043312Y0105800D03*
X0032288Y0105800D03*
X0030312Y0128800D03*
X0019288Y0128800D03*
D14*
X0013800Y0157800D03*
X0142800Y0156800D03*
X0143800Y0012800D03*
X0013800Y0012800D03*
D15*
X0026800Y0033957D03*
X0026800Y0053643D03*
X0057800Y0061800D03*
X0067800Y0061800D03*
X0077800Y0061800D03*
X0087800Y0061800D03*
X0088800Y0083800D03*
X0078800Y0083800D03*
X0068800Y0083800D03*
X0058800Y0083800D03*
X0058800Y0113800D03*
X0068800Y0113800D03*
X0078800Y0113800D03*
X0088800Y0113800D03*
X0107800Y0113800D03*
X0127800Y0103800D03*
X0107800Y0093800D03*
X0115800Y0074800D03*
X0115800Y0064800D03*
X0087800Y0031800D03*
X0077800Y0031800D03*
X0067800Y0031800D03*
X0057800Y0031800D03*
X0107957Y0026800D03*
X0127643Y0026800D03*
X0048800Y0128800D03*
X0048800Y0138800D03*
X0058800Y0156800D03*
X0082115Y0141879D03*
X0101800Y0141879D03*
X0121485Y0141879D03*
X0028800Y0156800D03*
D16*
X0023500Y0151158D02*
X0023500Y0146995D01*
X0014795Y0138290D01*
X0013988Y0136342D01*
X0013988Y0135959D01*
X0013986Y0135958D01*
X0012917Y0134890D01*
X0012339Y0133493D01*
X0012339Y0128674D01*
X0010865Y0126872D01*
X0010307Y0126314D01*
X0010203Y0126062D01*
X0010030Y0125851D01*
X0009802Y0125095D01*
X0009500Y0124366D01*
X0009500Y0124093D01*
X0009421Y0123832D01*
X0009500Y0123047D01*
X0009500Y0067746D01*
X0010307Y0065798D01*
X0011798Y0064307D01*
X0013805Y0062300D01*
X0010307Y0058802D01*
X0009500Y0056854D01*
X0009500Y0049040D01*
X0009426Y0048230D01*
X0009500Y0047993D01*
X0009500Y0047746D01*
X0009811Y0046994D01*
X0010054Y0046217D01*
X0010212Y0046027D01*
X0010307Y0045798D01*
X0010882Y0045222D01*
X0015212Y0040027D01*
X0015307Y0039798D01*
X0015882Y0039222D01*
X0016403Y0038597D01*
X0016623Y0038482D01*
X0016798Y0038307D01*
X0017550Y0037995D01*
X0018270Y0037617D01*
X0018517Y0037595D01*
X0018746Y0037500D01*
X0019560Y0037500D01*
X0020370Y0037426D01*
X0020607Y0037500D01*
X0022282Y0037500D01*
X0021893Y0036964D01*
X0021483Y0036160D01*
X0021204Y0035301D01*
X0021063Y0034409D01*
X0021063Y0034339D01*
X0026419Y0034339D01*
X0026419Y0033576D01*
X0027181Y0033576D01*
X0027181Y0028220D01*
X0027252Y0028220D01*
X0028143Y0028362D01*
X0029002Y0028641D01*
X0029807Y0029051D01*
X0030537Y0029582D01*
X0031176Y0030220D01*
X0031707Y0030951D01*
X0032117Y0031755D01*
X0032396Y0032614D01*
X0032537Y0033506D01*
X0032537Y0033568D01*
X0035500Y0030605D01*
X0035500Y0024746D01*
X0036307Y0022798D01*
X0037798Y0021307D01*
X0047798Y0011307D01*
X0049746Y0010500D01*
X0077854Y0010500D01*
X0079802Y0011307D01*
X0081293Y0012798D01*
X0092293Y0023798D01*
X0093100Y0025746D01*
X0093100Y0026158D01*
X0094359Y0027417D01*
X0095537Y0030261D01*
X0095537Y0033339D01*
X0094435Y0036000D01*
X0099812Y0036000D01*
X0103014Y0032798D01*
X0101398Y0031183D01*
X0100220Y0028339D01*
X0100220Y0025261D01*
X0101398Y0022417D01*
X0103575Y0020241D01*
X0106418Y0019063D01*
X0109496Y0019063D01*
X0112340Y0020241D01*
X0114517Y0022417D01*
X0115694Y0025261D01*
X0115694Y0028339D01*
X0114517Y0031183D01*
X0112757Y0032942D01*
X0112757Y0035597D01*
X0112027Y0037361D01*
X0110676Y0038712D01*
X0105869Y0043519D01*
X0104519Y0044869D01*
X0102755Y0045600D01*
X0084018Y0045600D01*
X0083284Y0045667D01*
X0083070Y0045600D01*
X0082845Y0045600D01*
X0082164Y0045318D01*
X0081461Y0045099D01*
X0081288Y0044955D01*
X0081081Y0044869D01*
X0080560Y0044348D01*
X0075288Y0039955D01*
X0075081Y0039869D01*
X0074560Y0039348D01*
X0073994Y0038876D01*
X0073889Y0038678D01*
X0073731Y0038519D01*
X0073716Y0038483D01*
X0073417Y0038359D01*
X0072800Y0037742D01*
X0072183Y0038359D01*
X0069339Y0039537D01*
X0066261Y0039537D01*
X0063417Y0038359D01*
X0061362Y0036304D01*
X0060807Y0036707D01*
X0060002Y0037117D01*
X0059143Y0037396D01*
X0058252Y0037537D01*
X0057800Y0037537D01*
X0057800Y0031800D01*
X0057800Y0031800D01*
X0057800Y0037537D01*
X0057348Y0037537D01*
X0056457Y0037396D01*
X0055600Y0037117D01*
X0055600Y0043636D01*
X0055614Y0043642D01*
X0056683Y0044710D01*
X0057015Y0045512D01*
X0063267Y0045512D01*
X0065031Y0046243D01*
X0070519Y0051731D01*
X0071869Y0053081D01*
X0072600Y0054845D01*
X0072600Y0055658D01*
X0072800Y0055858D01*
X0073417Y0055241D01*
X0076261Y0054063D01*
X0079339Y0054063D01*
X0082183Y0055241D01*
X0082800Y0055858D01*
X0083417Y0055241D01*
X0086261Y0054063D01*
X0089339Y0054063D01*
X0092183Y0055241D01*
X0093942Y0057000D01*
X0100812Y0057000D01*
X0102339Y0055473D01*
X0102339Y0048501D01*
X0102917Y0047104D01*
X0103986Y0046035D01*
X0105383Y0045457D01*
X0113194Y0045457D01*
X0114590Y0046035D01*
X0115659Y0047104D01*
X0115984Y0047889D01*
X0116057Y0047816D01*
X0116467Y0047579D01*
X0116925Y0047457D01*
X0119537Y0047457D01*
X0119537Y0052025D01*
X0121087Y0052025D01*
X0121087Y0053575D01*
X0125261Y0053575D01*
X0125261Y0056580D01*
X0125139Y0057038D01*
X0124902Y0057449D01*
X0124567Y0057784D01*
X0124156Y0058021D01*
X0123698Y0058143D01*
X0121087Y0058143D01*
X0121087Y0053575D01*
X0119537Y0053575D01*
X0119537Y0058143D01*
X0116925Y0058143D01*
X0116467Y0058021D01*
X0116057Y0057784D01*
X0115984Y0057711D01*
X0115659Y0058496D01*
X0115044Y0059111D01*
X0115348Y0059063D01*
X0115800Y0059063D01*
X0116252Y0059063D01*
X0117143Y0059204D01*
X0118002Y0059483D01*
X0118807Y0059893D01*
X0119537Y0060424D01*
X0120176Y0061063D01*
X0120707Y0061793D01*
X0121117Y0062598D01*
X0121396Y0063457D01*
X0121537Y0064348D01*
X0121537Y0064800D01*
X0121537Y0065252D01*
X0121396Y0066143D01*
X0121117Y0067002D01*
X0120707Y0067807D01*
X0120304Y0068362D01*
X0122359Y0070417D01*
X0122675Y0071179D01*
X0130802Y0079307D01*
X0132293Y0080798D01*
X0133100Y0082746D01*
X0133100Y0098158D01*
X0134359Y0099417D01*
X0135537Y0102261D01*
X0135537Y0105339D01*
X0134359Y0108183D01*
X0133100Y0109442D01*
X0133100Y0121854D01*
X0132293Y0123802D01*
X0123802Y0132293D01*
X0121854Y0133100D01*
X0088995Y0133100D01*
X0087415Y0134680D01*
X0087415Y0136237D01*
X0088674Y0137496D01*
X0089852Y0140340D01*
X0089852Y0143418D01*
X0088674Y0146261D01*
X0086498Y0148438D01*
X0083654Y0149616D01*
X0080576Y0149616D01*
X0077732Y0148438D01*
X0075556Y0146261D01*
X0074378Y0143418D01*
X0074378Y0140340D01*
X0075556Y0137496D01*
X0076815Y0136237D01*
X0076815Y0131431D01*
X0077622Y0129483D01*
X0082307Y0124798D01*
X0083798Y0123307D01*
X0085746Y0122500D01*
X0118605Y0122500D01*
X0122500Y0118605D01*
X0122500Y0109442D01*
X0121241Y0108183D01*
X0120063Y0105339D01*
X0120063Y0102261D01*
X0121241Y0099417D01*
X0122500Y0098158D01*
X0122500Y0085995D01*
X0118543Y0082038D01*
X0117339Y0082537D01*
X0114261Y0082537D01*
X0111643Y0081452D01*
X0107032Y0086063D01*
X0109339Y0086063D01*
X0112183Y0087241D01*
X0114359Y0089417D01*
X0115537Y0092261D01*
X0115537Y0095339D01*
X0114359Y0098183D01*
X0112183Y0100359D01*
X0109339Y0101537D01*
X0106261Y0101537D01*
X0103417Y0100359D01*
X0102158Y0099100D01*
X0063746Y0099100D01*
X0061798Y0098293D01*
X0060307Y0096802D01*
X0055798Y0092293D01*
X0054307Y0090802D01*
X0053915Y0089857D01*
X0052241Y0088183D01*
X0051063Y0085339D01*
X0051063Y0084058D01*
X0049755Y0084600D01*
X0048254Y0084600D01*
X0048261Y0084626D01*
X0048261Y0088025D01*
X0044087Y0088025D01*
X0044087Y0089575D01*
X0048261Y0089575D01*
X0048261Y0092974D01*
X0048139Y0093432D01*
X0047902Y0093842D01*
X0047567Y0094177D01*
X0047156Y0094414D01*
X0046698Y0094537D01*
X0044087Y0094537D01*
X0044087Y0089575D01*
X0042537Y0089575D01*
X0042537Y0094537D01*
X0039925Y0094537D01*
X0039467Y0094414D01*
X0039057Y0094177D01*
X0038984Y0094105D01*
X0038659Y0094890D01*
X0037590Y0095958D01*
X0037088Y0096166D01*
X0037088Y0098434D01*
X0037590Y0098642D01*
X0037800Y0098851D01*
X0038010Y0098642D01*
X0039406Y0098063D01*
X0047217Y0098063D01*
X0048614Y0098642D01*
X0049683Y0099710D01*
X0050217Y0101000D01*
X0072755Y0101000D01*
X0074519Y0101731D01*
X0075869Y0103081D01*
X0078851Y0106063D01*
X0080339Y0106063D01*
X0083183Y0107241D01*
X0083800Y0107858D01*
X0084417Y0107241D01*
X0087261Y0106063D01*
X0090339Y0106063D01*
X0093183Y0107241D01*
X0094442Y0108500D01*
X0102158Y0108500D01*
X0103417Y0107241D01*
X0106261Y0106063D01*
X0109339Y0106063D01*
X0112183Y0107241D01*
X0114359Y0109417D01*
X0115537Y0112261D01*
X0115537Y0115339D01*
X0114359Y0118183D01*
X0112183Y0120359D01*
X0109339Y0121537D01*
X0106261Y0121537D01*
X0103417Y0120359D01*
X0102158Y0119100D01*
X0094442Y0119100D01*
X0093183Y0120359D01*
X0090339Y0121537D01*
X0087261Y0121537D01*
X0084417Y0120359D01*
X0083800Y0119742D01*
X0083183Y0120359D01*
X0080339Y0121537D01*
X0077261Y0121537D01*
X0074417Y0120359D01*
X0074100Y0120042D01*
X0074100Y0146605D01*
X0077995Y0150500D01*
X0113605Y0150500D01*
X0116185Y0147920D01*
X0116185Y0147521D01*
X0114926Y0146261D01*
X0113748Y0143418D01*
X0113748Y0140340D01*
X0114926Y0137496D01*
X0117102Y0135320D01*
X0119946Y0134142D01*
X0123024Y0134142D01*
X0125868Y0135320D01*
X0128044Y0137496D01*
X0129222Y0140340D01*
X0129222Y0143418D01*
X0128044Y0146261D01*
X0126785Y0147521D01*
X0126785Y0151169D01*
X0125978Y0153117D01*
X0118802Y0160293D01*
X0116854Y0161100D01*
X0074746Y0161100D01*
X0072798Y0160293D01*
X0071307Y0158802D01*
X0064307Y0151802D01*
X0063500Y0149854D01*
X0063500Y0134100D01*
X0054442Y0134100D01*
X0053304Y0135238D01*
X0053707Y0135793D01*
X0054117Y0136598D01*
X0054396Y0137457D01*
X0054537Y0138348D01*
X0054537Y0138800D01*
X0054537Y0139252D01*
X0054396Y0140143D01*
X0054117Y0141002D01*
X0053707Y0141807D01*
X0053176Y0142537D01*
X0052537Y0143176D01*
X0051807Y0143707D01*
X0051002Y0144117D01*
X0050143Y0144396D01*
X0049252Y0144537D01*
X0048800Y0144537D01*
X0048800Y0138800D01*
X0048800Y0138800D01*
X0054537Y0138800D01*
X0048800Y0138800D01*
X0048800Y0138800D01*
X0048800Y0138800D01*
X0043063Y0138800D01*
X0043063Y0139252D01*
X0043204Y0140143D01*
X0043483Y0141002D01*
X0043893Y0141807D01*
X0044424Y0142537D01*
X0045063Y0143176D01*
X0045793Y0143707D01*
X0046598Y0144117D01*
X0047457Y0144396D01*
X0048348Y0144537D01*
X0048800Y0144537D01*
X0048800Y0138800D01*
X0043063Y0138800D01*
X0043063Y0138348D01*
X0043204Y0137457D01*
X0043483Y0136598D01*
X0043893Y0135793D01*
X0044296Y0135238D01*
X0043158Y0134100D01*
X0037010Y0134100D01*
X0036683Y0134890D01*
X0035614Y0135958D01*
X0034217Y0136537D01*
X0028032Y0136537D01*
X0033293Y0141798D01*
X0034100Y0143746D01*
X0034100Y0151158D01*
X0035359Y0152417D01*
X0036537Y0155261D01*
X0036537Y0158339D01*
X0035359Y0161183D01*
X0034550Y0161992D01*
X0056342Y0161986D01*
X0055793Y0161707D01*
X0055063Y0161176D01*
X0054424Y0160537D01*
X0053893Y0159807D01*
X0053483Y0159002D01*
X0053204Y0158143D01*
X0053063Y0157252D01*
X0053063Y0157083D01*
X0058517Y0157083D01*
X0058517Y0156517D01*
X0053063Y0156517D01*
X0053063Y0156348D01*
X0053204Y0155457D01*
X0053483Y0154598D01*
X0053893Y0153793D01*
X0054424Y0153063D01*
X0055063Y0152424D01*
X0055793Y0151893D01*
X0056598Y0151483D01*
X0057457Y0151204D01*
X0058348Y0151063D01*
X0058517Y0151063D01*
X0058517Y0156517D01*
X0059083Y0156517D01*
X0059083Y0157083D01*
X0064537Y0157083D01*
X0064537Y0157252D01*
X0064396Y0158143D01*
X0064117Y0159002D01*
X0063707Y0159807D01*
X0063176Y0160537D01*
X0062537Y0161176D01*
X0061807Y0161707D01*
X0061261Y0161985D01*
X0135521Y0161966D01*
X0134000Y0160445D01*
X0134000Y0153155D01*
X0139155Y0148000D01*
X0146445Y0148000D01*
X0148701Y0150256D01*
X0148701Y0146917D01*
X0145023Y0146917D01*
X0144892Y0147048D01*
X0143275Y0147718D01*
X0141525Y0147718D01*
X0139908Y0147048D01*
X0138670Y0145811D01*
X0138000Y0144193D01*
X0138000Y0140842D01*
X0138120Y0140551D01*
X0137914Y0139520D01*
X0138147Y0138342D01*
X0138000Y0137988D01*
X0138000Y0136238D01*
X0138284Y0135551D01*
X0138000Y0134865D01*
X0138000Y0133981D01*
X0138000Y0130713D01*
X0138284Y0130027D01*
X0138000Y0129341D01*
X0138000Y0129341D01*
X0138000Y0129341D01*
X0138000Y0128456D01*
X0138000Y0127739D01*
X0138000Y0126854D01*
X0138000Y0125989D01*
X0138000Y0125989D01*
X0138000Y0125989D01*
X0138121Y0125698D01*
X0138450Y0124902D01*
X0138000Y0123816D01*
X0138000Y0123816D01*
X0138000Y0123816D01*
X0138000Y0122931D01*
X0138000Y0120464D01*
X0138284Y0119778D01*
X0138000Y0119092D01*
X0138000Y0117341D01*
X0138301Y0116615D01*
X0138000Y0115889D01*
X0138000Y0114139D01*
X0138118Y0113853D01*
X0138000Y0113567D01*
X0138000Y0109415D01*
X0138450Y0108328D01*
X0138000Y0107242D01*
X0138000Y0103890D01*
X0138234Y0103324D01*
X0138000Y0102758D01*
X0138000Y0099406D01*
X0138118Y0099120D01*
X0134061Y0099120D01*
X0134898Y0100718D02*
X0138000Y0100718D01*
X0138000Y0102317D02*
X0135537Y0102317D01*
X0135537Y0103915D02*
X0138000Y0103915D01*
X0138000Y0105514D02*
X0135465Y0105514D01*
X0134803Y0107112D02*
X0138000Y0107112D01*
X0138292Y0108711D02*
X0133831Y0108711D01*
X0133100Y0110309D02*
X0138000Y0110309D01*
X0138000Y0111908D02*
X0133100Y0111908D01*
X0133100Y0113506D02*
X0138000Y0113506D01*
X0138000Y0115105D02*
X0133100Y0115105D01*
X0133100Y0116703D02*
X0138264Y0116703D01*
X0138000Y0118302D02*
X0133100Y0118302D01*
X0133100Y0119900D02*
X0138234Y0119900D01*
X0138000Y0121499D02*
X0133100Y0121499D01*
X0132585Y0123097D02*
X0138000Y0123097D01*
X0138364Y0124696D02*
X0131400Y0124696D01*
X0129801Y0126294D02*
X0138000Y0126294D01*
X0138000Y0127739D02*
X0138000Y0127739D01*
X0138000Y0127893D02*
X0128202Y0127893D01*
X0126604Y0129491D02*
X0138062Y0129491D01*
X0138000Y0131090D02*
X0125005Y0131090D01*
X0122848Y0132688D02*
X0138000Y0132688D01*
X0138000Y0134287D02*
X0123374Y0134287D01*
X0126433Y0135885D02*
X0138146Y0135885D01*
X0138000Y0134865D02*
X0138000Y0134865D01*
X0138000Y0134865D01*
X0138000Y0137484D02*
X0128032Y0137484D01*
X0128701Y0139082D02*
X0138000Y0139082D01*
X0138067Y0140681D02*
X0129222Y0140681D01*
X0129222Y0142279D02*
X0138000Y0142279D01*
X0138000Y0143878D02*
X0129031Y0143878D01*
X0128369Y0145476D02*
X0138531Y0145476D01*
X0139972Y0147075D02*
X0127231Y0147075D01*
X0126785Y0148673D02*
X0138481Y0148673D01*
X0136883Y0150272D02*
X0126785Y0150272D01*
X0126495Y0151870D02*
X0135284Y0151870D01*
X0134000Y0153469D02*
X0125626Y0153469D01*
X0124028Y0155068D02*
X0134000Y0155068D01*
X0134000Y0156666D02*
X0122429Y0156666D01*
X0120831Y0158265D02*
X0134000Y0158265D01*
X0134000Y0159863D02*
X0119232Y0159863D01*
X0113833Y0150272D02*
X0077767Y0150272D01*
X0078301Y0148673D02*
X0076169Y0148673D01*
X0076369Y0147075D02*
X0074570Y0147075D01*
X0074100Y0145476D02*
X0075231Y0145476D01*
X0074569Y0143878D02*
X0074100Y0143878D01*
X0074100Y0142279D02*
X0074378Y0142279D01*
X0074378Y0140681D02*
X0074100Y0140681D01*
X0074100Y0139082D02*
X0074899Y0139082D01*
X0075568Y0137484D02*
X0074100Y0137484D01*
X0074100Y0135885D02*
X0076815Y0135885D01*
X0076815Y0134287D02*
X0074100Y0134287D01*
X0074100Y0132688D02*
X0076815Y0132688D01*
X0076956Y0131090D02*
X0074100Y0131090D01*
X0074100Y0129491D02*
X0077618Y0129491D01*
X0079212Y0127893D02*
X0074100Y0127893D01*
X0074100Y0126294D02*
X0080810Y0126294D01*
X0082409Y0124696D02*
X0074100Y0124696D01*
X0074100Y0123097D02*
X0084304Y0123097D01*
X0083959Y0119900D02*
X0083641Y0119900D01*
X0080431Y0121499D02*
X0087169Y0121499D01*
X0090431Y0121499D02*
X0106169Y0121499D01*
X0109431Y0121499D02*
X0119606Y0121499D01*
X0121204Y0119900D02*
X0112641Y0119900D01*
X0114240Y0118302D02*
X0122500Y0118302D01*
X0122500Y0116703D02*
X0114972Y0116703D01*
X0115537Y0115105D02*
X0122500Y0115105D01*
X0122500Y0113506D02*
X0115537Y0113506D01*
X0115391Y0111908D02*
X0122500Y0111908D01*
X0122500Y0110309D02*
X0114729Y0110309D01*
X0113652Y0108711D02*
X0121769Y0108711D01*
X0120797Y0107112D02*
X0111872Y0107112D01*
X0111316Y0100718D02*
X0120702Y0100718D01*
X0120063Y0102317D02*
X0075105Y0102317D01*
X0076703Y0103915D02*
X0120063Y0103915D01*
X0120135Y0105514D02*
X0078302Y0105514D01*
X0082872Y0107112D02*
X0084728Y0107112D01*
X0092872Y0107112D02*
X0103728Y0107112D01*
X0104284Y0100718D02*
X0050100Y0100718D01*
X0049092Y0099120D02*
X0102178Y0099120D01*
X0113422Y0099120D02*
X0121539Y0099120D01*
X0122500Y0097521D02*
X0114633Y0097521D01*
X0115295Y0095923D02*
X0122500Y0095923D01*
X0122500Y0094324D02*
X0115537Y0094324D01*
X0115537Y0092726D02*
X0122500Y0092726D01*
X0122500Y0091127D02*
X0115067Y0091127D01*
X0114405Y0089529D02*
X0122500Y0089529D01*
X0122500Y0087930D02*
X0112872Y0087930D01*
X0109987Y0086332D02*
X0122500Y0086332D01*
X0121238Y0084733D02*
X0108362Y0084733D01*
X0109961Y0083134D02*
X0119639Y0083134D01*
X0111844Y0081536D02*
X0111559Y0081536D01*
X0104561Y0073543D02*
X0090087Y0073543D01*
X0090087Y0073575D02*
X0094261Y0073575D01*
X0094261Y0076580D01*
X0094139Y0077038D01*
X0093902Y0077449D01*
X0093646Y0077704D01*
X0094442Y0078500D01*
X0099605Y0078500D01*
X0107798Y0070307D01*
X0109746Y0069500D01*
X0110158Y0069500D01*
X0111296Y0068362D01*
X0110893Y0067807D01*
X0110483Y0067002D01*
X0110204Y0066143D01*
X0110063Y0065252D01*
X0110063Y0064800D01*
X0115800Y0064800D01*
X0121537Y0064800D01*
X0115800Y0064800D01*
X0115800Y0064800D01*
X0115800Y0064800D01*
X0115800Y0059063D01*
X0115800Y0064800D01*
X0115800Y0064800D01*
X0110063Y0064800D01*
X0110063Y0064348D01*
X0110204Y0063457D01*
X0110483Y0062598D01*
X0110893Y0061793D01*
X0111424Y0061063D01*
X0112063Y0060424D01*
X0112449Y0060143D01*
X0111245Y0060143D01*
X0105519Y0065869D01*
X0103755Y0066600D01*
X0093942Y0066600D01*
X0093003Y0067538D01*
X0093156Y0067579D01*
X0093567Y0067816D01*
X0093902Y0068151D01*
X0094139Y0068562D01*
X0094261Y0069020D01*
X0094261Y0072025D01*
X0090087Y0072025D01*
X0090087Y0073575D01*
X0094261Y0075142D02*
X0102963Y0075142D01*
X0101364Y0076740D02*
X0094218Y0076740D01*
X0094281Y0078339D02*
X0099766Y0078339D01*
X0094261Y0071945D02*
X0106160Y0071945D01*
X0107758Y0070346D02*
X0094261Y0070346D01*
X0094189Y0068748D02*
X0110910Y0068748D01*
X0110558Y0067149D02*
X0093392Y0067149D01*
X0092902Y0055960D02*
X0101852Y0055960D01*
X0102339Y0054361D02*
X0090059Y0054361D01*
X0085541Y0054361D02*
X0080059Y0054361D01*
X0075541Y0054361D02*
X0072400Y0054361D01*
X0071551Y0052763D02*
X0102339Y0052763D01*
X0102339Y0051164D02*
X0069952Y0051164D01*
X0068354Y0049566D02*
X0102339Y0049566D01*
X0102560Y0047967D02*
X0066755Y0047967D01*
X0065157Y0046369D02*
X0103653Y0046369D01*
X0104618Y0044770D02*
X0138000Y0044770D01*
X0138000Y0044664D02*
X0138000Y0041397D01*
X0138118Y0041111D01*
X0138000Y0040825D01*
X0138000Y0036673D01*
X0138234Y0036107D01*
X0138000Y0035541D01*
X0138000Y0032189D01*
X0138284Y0031503D01*
X0138000Y0030817D01*
X0138000Y0030817D01*
X0138000Y0030816D01*
X0138000Y0029951D01*
X0138000Y0026664D01*
X0138670Y0025047D01*
X0139908Y0023809D01*
X0141525Y0023139D01*
X0148079Y0023139D01*
X0148701Y0023397D01*
X0148701Y0020344D01*
X0147445Y0021600D01*
X0140155Y0021600D01*
X0135000Y0016445D01*
X0135000Y0009155D01*
X0135555Y0008600D01*
X0022045Y0008600D01*
X0022600Y0009155D01*
X0022600Y0016445D01*
X0017445Y0021600D01*
X0010155Y0021600D01*
X0008604Y0020049D01*
X0008635Y0150520D01*
X0010155Y0149000D01*
X0017445Y0149000D01*
X0021837Y0153392D01*
X0022241Y0152417D01*
X0023500Y0151158D01*
X0023500Y0150272D02*
X0018717Y0150272D01*
X0020316Y0151870D02*
X0022788Y0151870D01*
X0023500Y0148673D02*
X0008635Y0148673D01*
X0008634Y0147075D02*
X0023500Y0147075D01*
X0021981Y0145476D02*
X0008634Y0145476D01*
X0008634Y0143878D02*
X0020383Y0143878D01*
X0018784Y0142279D02*
X0008633Y0142279D01*
X0008633Y0140681D02*
X0017186Y0140681D01*
X0015587Y0139082D02*
X0008632Y0139082D01*
X0008632Y0137484D02*
X0014461Y0137484D01*
X0013913Y0135885D02*
X0008632Y0135885D01*
X0008631Y0134287D02*
X0012667Y0134287D01*
X0012339Y0132688D02*
X0008631Y0132688D01*
X0008631Y0131090D02*
X0012339Y0131090D01*
X0012339Y0129491D02*
X0008630Y0129491D01*
X0008630Y0127893D02*
X0011700Y0127893D01*
X0010299Y0126294D02*
X0008629Y0126294D01*
X0008629Y0124696D02*
X0009637Y0124696D01*
X0009495Y0123097D02*
X0008629Y0123097D01*
X0008628Y0121499D02*
X0009500Y0121499D01*
X0009500Y0119900D02*
X0008628Y0119900D01*
X0008628Y0118302D02*
X0009500Y0118302D01*
X0009500Y0116703D02*
X0008627Y0116703D01*
X0008627Y0115105D02*
X0009500Y0115105D01*
X0009500Y0113506D02*
X0008626Y0113506D01*
X0008626Y0111908D02*
X0009500Y0111908D01*
X0009500Y0110309D02*
X0008626Y0110309D01*
X0008625Y0108711D02*
X0009500Y0108711D01*
X0009500Y0107112D02*
X0008625Y0107112D01*
X0008624Y0105514D02*
X0009500Y0105514D01*
X0009500Y0103915D02*
X0008624Y0103915D01*
X0008624Y0102317D02*
X0009500Y0102317D01*
X0009500Y0100718D02*
X0008623Y0100718D01*
X0008623Y0099120D02*
X0009500Y0099120D01*
X0009500Y0097521D02*
X0008623Y0097521D01*
X0008622Y0095923D02*
X0009500Y0095923D01*
X0009500Y0094324D02*
X0008622Y0094324D01*
X0008621Y0092726D02*
X0009500Y0092726D01*
X0009500Y0091127D02*
X0008621Y0091127D01*
X0008621Y0089529D02*
X0009500Y0089529D01*
X0009500Y0087930D02*
X0008620Y0087930D01*
X0008620Y0086332D02*
X0009500Y0086332D01*
X0009500Y0084733D02*
X0008620Y0084733D01*
X0008619Y0083134D02*
X0009500Y0083134D01*
X0009500Y0081536D02*
X0008619Y0081536D01*
X0008618Y0079937D02*
X0009500Y0079937D01*
X0009500Y0078339D02*
X0008618Y0078339D01*
X0008618Y0076740D02*
X0009500Y0076740D01*
X0009500Y0075142D02*
X0008617Y0075142D01*
X0008617Y0073543D02*
X0009500Y0073543D01*
X0009500Y0071945D02*
X0008616Y0071945D01*
X0008616Y0070346D02*
X0009500Y0070346D01*
X0009500Y0068748D02*
X0008616Y0068748D01*
X0008615Y0067149D02*
X0009747Y0067149D01*
X0010554Y0065551D02*
X0008615Y0065551D01*
X0008615Y0063952D02*
X0012152Y0063952D01*
X0013751Y0062354D02*
X0008614Y0062354D01*
X0008614Y0060755D02*
X0012260Y0060755D01*
X0010662Y0059157D02*
X0008613Y0059157D01*
X0008613Y0057558D02*
X0009792Y0057558D01*
X0009500Y0055960D02*
X0008613Y0055960D01*
X0008612Y0054361D02*
X0009500Y0054361D01*
X0009500Y0052763D02*
X0008612Y0052763D01*
X0008612Y0051164D02*
X0009500Y0051164D01*
X0009500Y0049566D02*
X0008611Y0049566D01*
X0008611Y0047967D02*
X0009500Y0047967D01*
X0010006Y0046369D02*
X0008610Y0046369D01*
X0008610Y0044770D02*
X0011259Y0044770D01*
X0012591Y0043172D02*
X0008610Y0043172D01*
X0008609Y0041573D02*
X0013923Y0041573D01*
X0015234Y0039975D02*
X0008609Y0039975D01*
X0008608Y0038376D02*
X0016728Y0038376D01*
X0021798Y0036778D02*
X0008608Y0036778D01*
X0008608Y0035179D02*
X0021185Y0035179D01*
X0021063Y0033576D02*
X0021063Y0033506D01*
X0021204Y0032614D01*
X0021483Y0031755D01*
X0021893Y0030951D01*
X0022424Y0030220D01*
X0023063Y0029582D01*
X0023793Y0029051D01*
X0024598Y0028641D01*
X0025457Y0028362D01*
X0026348Y0028220D01*
X0026419Y0028220D01*
X0026419Y0033576D01*
X0021063Y0033576D01*
X0021410Y0031982D02*
X0008607Y0031982D01*
X0008607Y0030384D02*
X0022305Y0030384D01*
X0024314Y0028785D02*
X0008606Y0028785D01*
X0008606Y0027187D02*
X0035500Y0027187D01*
X0035500Y0028785D02*
X0029285Y0028785D01*
X0027181Y0028785D02*
X0026419Y0028785D01*
X0026419Y0030384D02*
X0027181Y0030384D01*
X0027181Y0031982D02*
X0026419Y0031982D01*
X0026419Y0033581D02*
X0008607Y0033581D01*
X0008605Y0025588D02*
X0035500Y0025588D01*
X0035813Y0023990D02*
X0008605Y0023990D01*
X0008605Y0022391D02*
X0036714Y0022391D01*
X0038312Y0020793D02*
X0018252Y0020793D01*
X0019851Y0019194D02*
X0039911Y0019194D01*
X0041509Y0017596D02*
X0021450Y0017596D01*
X0022600Y0015997D02*
X0043108Y0015997D01*
X0044706Y0014399D02*
X0022600Y0014399D01*
X0022600Y0012800D02*
X0046305Y0012800D01*
X0048052Y0011201D02*
X0022600Y0011201D01*
X0022600Y0009603D02*
X0135000Y0009603D01*
X0135000Y0011201D02*
X0079548Y0011201D01*
X0081295Y0012800D02*
X0135000Y0012800D01*
X0135000Y0014399D02*
X0082894Y0014399D01*
X0084492Y0015997D02*
X0135000Y0015997D01*
X0136150Y0017596D02*
X0086091Y0017596D01*
X0087689Y0019194D02*
X0106102Y0019194D01*
X0103023Y0020793D02*
X0089288Y0020793D01*
X0090886Y0022391D02*
X0101425Y0022391D01*
X0100747Y0023990D02*
X0092373Y0023990D01*
X0093035Y0025588D02*
X0100220Y0025588D01*
X0100220Y0027187D02*
X0094128Y0027187D01*
X0094926Y0028785D02*
X0100405Y0028785D01*
X0101067Y0030384D02*
X0095537Y0030384D01*
X0095537Y0031982D02*
X0102198Y0031982D01*
X0102231Y0033581D02*
X0095437Y0033581D01*
X0094775Y0035179D02*
X0100633Y0035179D01*
X0107815Y0041573D02*
X0138000Y0041573D01*
X0138000Y0039975D02*
X0109414Y0039975D01*
X0111012Y0038376D02*
X0138000Y0038376D01*
X0138000Y0036778D02*
X0112269Y0036778D01*
X0112757Y0035179D02*
X0138000Y0035179D01*
X0138000Y0033581D02*
X0112757Y0033581D01*
X0113717Y0031982D02*
X0125176Y0031982D01*
X0125440Y0032117D02*
X0124636Y0031707D01*
X0123905Y0031176D01*
X0123267Y0030537D01*
X0122736Y0029807D01*
X0122326Y0029002D01*
X0122047Y0028143D01*
X0121906Y0027252D01*
X0121906Y0027181D01*
X0127261Y0027181D01*
X0127261Y0026419D01*
X0121906Y0026419D01*
X0121906Y0026348D01*
X0122047Y0025457D01*
X0122326Y0024598D01*
X0122736Y0023793D01*
X0123267Y0023063D01*
X0123905Y0022424D01*
X0124636Y0021893D01*
X0125440Y0021483D01*
X0126299Y0021204D01*
X0127191Y0021063D01*
X0127261Y0021063D01*
X0127261Y0026419D01*
X0128024Y0026419D01*
X0128024Y0027181D01*
X0133380Y0027181D01*
X0133380Y0027252D01*
X0133238Y0028143D01*
X0132959Y0029002D01*
X0132549Y0029807D01*
X0132018Y0030537D01*
X0131380Y0031176D01*
X0130649Y0031707D01*
X0129845Y0032117D01*
X0128986Y0032396D01*
X0128094Y0032537D01*
X0128024Y0032537D01*
X0128024Y0027181D01*
X0127261Y0027181D01*
X0127261Y0032537D01*
X0127191Y0032537D01*
X0126299Y0032396D01*
X0125440Y0032117D01*
X0127261Y0031982D02*
X0128024Y0031982D01*
X0128024Y0030384D02*
X0127261Y0030384D01*
X0127261Y0028785D02*
X0128024Y0028785D01*
X0128024Y0027187D02*
X0127261Y0027187D01*
X0128024Y0026419D02*
X0128024Y0021063D01*
X0128094Y0021063D01*
X0128986Y0021204D01*
X0129845Y0021483D01*
X0130649Y0021893D01*
X0131380Y0022424D01*
X0132018Y0023063D01*
X0132549Y0023793D01*
X0132959Y0024598D01*
X0133238Y0025457D01*
X0133380Y0026348D01*
X0133380Y0026419D01*
X0128024Y0026419D01*
X0128024Y0025588D02*
X0127261Y0025588D01*
X0127261Y0023990D02*
X0128024Y0023990D01*
X0128024Y0022391D02*
X0127261Y0022391D01*
X0123951Y0022391D02*
X0114490Y0022391D01*
X0115168Y0023990D02*
X0122636Y0023990D01*
X0122026Y0025588D02*
X0115694Y0025588D01*
X0115694Y0027187D02*
X0121906Y0027187D01*
X0122255Y0028785D02*
X0115510Y0028785D01*
X0114848Y0030384D02*
X0123155Y0030384D01*
X0130109Y0031982D02*
X0138086Y0031982D01*
X0138000Y0030384D02*
X0132130Y0030384D01*
X0133030Y0028785D02*
X0138000Y0028785D01*
X0138000Y0027187D02*
X0133380Y0027187D01*
X0133259Y0025588D02*
X0138446Y0025588D01*
X0139727Y0023990D02*
X0132649Y0023990D01*
X0131335Y0022391D02*
X0148701Y0022391D01*
X0148701Y0020793D02*
X0148252Y0020793D01*
X0139347Y0020793D02*
X0112892Y0020793D01*
X0109813Y0019194D02*
X0137749Y0019194D01*
X0138000Y0043172D02*
X0106216Y0043172D01*
X0114924Y0046369D02*
X0138229Y0046369D01*
X0138284Y0046235D02*
X0138000Y0046921D01*
X0138000Y0051875D01*
X0138284Y0052561D01*
X0138000Y0053247D01*
X0138000Y0057399D01*
X0138118Y0057685D01*
X0138000Y0057971D01*
X0138000Y0062924D01*
X0138284Y0063610D01*
X0138000Y0064296D01*
X0138000Y0068449D01*
X0138118Y0068734D01*
X0138000Y0069020D01*
X0138000Y0070771D01*
X0138147Y0071125D01*
X0137914Y0072302D01*
X0138257Y0074019D01*
X0139231Y0075473D01*
X0140250Y0076152D01*
X0139908Y0076294D01*
X0138670Y0077532D01*
X0138000Y0079149D01*
X0138000Y0080899D01*
X0138301Y0081625D01*
X0138000Y0082352D01*
X0138000Y0084102D01*
X0138284Y0084788D01*
X0138000Y0085474D01*
X0138000Y0087650D01*
X0137068Y0088581D01*
X0136399Y0090198D01*
X0136399Y0092749D01*
X0137068Y0094367D01*
X0137869Y0095167D01*
X0138000Y0095298D01*
X0138000Y0098835D01*
X0138118Y0099120D01*
X0138000Y0097521D02*
X0133100Y0097521D01*
X0133100Y0095923D02*
X0138000Y0095923D01*
X0137051Y0094324D02*
X0133100Y0094324D01*
X0133100Y0092726D02*
X0136399Y0092726D01*
X0136399Y0091127D02*
X0133100Y0091127D01*
X0133100Y0089529D02*
X0136676Y0089529D01*
X0137720Y0087930D02*
X0133100Y0087930D01*
X0133100Y0086332D02*
X0138000Y0086332D01*
X0138261Y0084733D02*
X0133100Y0084733D01*
X0133100Y0083134D02*
X0138000Y0083134D01*
X0138264Y0081536D02*
X0132599Y0081536D01*
X0131433Y0079937D02*
X0138000Y0079937D01*
X0138335Y0078339D02*
X0129834Y0078339D01*
X0128236Y0076740D02*
X0139461Y0076740D01*
X0139009Y0075142D02*
X0126637Y0075142D01*
X0125039Y0073543D02*
X0138162Y0073543D01*
X0137984Y0071945D02*
X0123440Y0071945D01*
X0122288Y0070346D02*
X0138000Y0070346D01*
X0138113Y0068748D02*
X0120690Y0068748D01*
X0121042Y0067149D02*
X0138000Y0067149D01*
X0138000Y0065551D02*
X0121490Y0065551D01*
X0121474Y0063952D02*
X0138142Y0063952D01*
X0138000Y0062354D02*
X0120992Y0062354D01*
X0119869Y0060755D02*
X0138000Y0060755D01*
X0138000Y0059157D02*
X0116844Y0059157D01*
X0115800Y0059157D02*
X0115800Y0059157D01*
X0115800Y0060755D02*
X0115800Y0060755D01*
X0115800Y0062354D02*
X0115800Y0062354D01*
X0115800Y0063952D02*
X0115800Y0063952D01*
X0111731Y0060755D02*
X0110633Y0060755D01*
X0110608Y0062354D02*
X0109034Y0062354D01*
X0110126Y0063952D02*
X0107436Y0063952D01*
X0105837Y0065551D02*
X0110110Y0065551D01*
X0119537Y0057558D02*
X0121087Y0057558D01*
X0121087Y0055960D02*
X0119537Y0055960D01*
X0119537Y0054361D02*
X0121087Y0054361D01*
X0121087Y0052763D02*
X0138200Y0052763D01*
X0138000Y0054361D02*
X0125261Y0054361D01*
X0125261Y0055960D02*
X0138000Y0055960D01*
X0138066Y0057558D02*
X0124792Y0057558D01*
X0125261Y0052025D02*
X0121087Y0052025D01*
X0121087Y0047457D01*
X0123698Y0047457D01*
X0124156Y0047579D01*
X0124567Y0047816D01*
X0124902Y0048151D01*
X0125139Y0048562D01*
X0125261Y0049020D01*
X0125261Y0052025D01*
X0125261Y0051164D02*
X0138000Y0051164D01*
X0138000Y0049566D02*
X0125261Y0049566D01*
X0124718Y0047967D02*
X0138000Y0047967D01*
X0138284Y0046235D02*
X0138000Y0045549D01*
X0138000Y0044664D01*
X0138000Y0045549D02*
X0138000Y0045549D01*
X0138000Y0045549D01*
X0121087Y0047967D02*
X0119537Y0047967D01*
X0119537Y0049566D02*
X0121087Y0049566D01*
X0121087Y0051164D02*
X0119537Y0051164D01*
X0080982Y0044770D02*
X0056708Y0044770D01*
X0055600Y0043172D02*
X0079148Y0043172D01*
X0077230Y0041573D02*
X0055600Y0041573D01*
X0055600Y0039975D02*
X0075312Y0039975D01*
X0073459Y0038376D02*
X0072141Y0038376D01*
X0063459Y0038376D02*
X0055600Y0038376D01*
X0057800Y0036778D02*
X0057800Y0036778D01*
X0057800Y0035179D02*
X0057800Y0035179D01*
X0057800Y0033581D02*
X0057800Y0033581D01*
X0057800Y0031982D02*
X0057800Y0031982D01*
X0060668Y0036778D02*
X0061836Y0036778D01*
X0035500Y0030384D02*
X0031295Y0030384D01*
X0032190Y0031982D02*
X0034123Y0031982D01*
X0009348Y0020793D02*
X0008604Y0020793D01*
X0048261Y0084733D02*
X0051063Y0084733D01*
X0051474Y0086332D02*
X0048261Y0086332D01*
X0048261Y0087930D02*
X0052136Y0087930D01*
X0053587Y0089529D02*
X0044087Y0089529D01*
X0044087Y0091127D02*
X0042537Y0091127D01*
X0042537Y0092726D02*
X0044087Y0092726D01*
X0044087Y0094324D02*
X0042537Y0094324D01*
X0039311Y0094324D02*
X0038893Y0094324D01*
X0037626Y0095923D02*
X0059427Y0095923D01*
X0061026Y0097521D02*
X0037088Y0097521D01*
X0047313Y0094324D02*
X0057829Y0094324D01*
X0056230Y0092726D02*
X0048261Y0092726D01*
X0048261Y0091127D02*
X0054632Y0091127D01*
X0074100Y0121499D02*
X0077169Y0121499D01*
X0087808Y0134287D02*
X0119596Y0134287D01*
X0116537Y0135885D02*
X0087415Y0135885D01*
X0088662Y0137484D02*
X0098089Y0137484D01*
X0098063Y0137503D02*
X0098793Y0136972D01*
X0099598Y0136562D01*
X0100457Y0136283D01*
X0101348Y0136142D01*
X0101419Y0136142D01*
X0101419Y0141498D01*
X0096063Y0141498D01*
X0096063Y0141427D01*
X0096204Y0140535D01*
X0096483Y0139676D01*
X0096893Y0138872D01*
X0097424Y0138141D01*
X0098063Y0137503D01*
X0096786Y0139082D02*
X0089331Y0139082D01*
X0089852Y0140681D02*
X0096181Y0140681D01*
X0096063Y0142260D02*
X0101419Y0142260D01*
X0101419Y0147616D01*
X0101348Y0147616D01*
X0100457Y0147474D01*
X0099598Y0147195D01*
X0098793Y0146785D01*
X0098063Y0146255D01*
X0097424Y0145616D01*
X0096893Y0144886D01*
X0096483Y0144081D01*
X0096204Y0143222D01*
X0096063Y0142330D01*
X0096063Y0142260D01*
X0096063Y0142279D02*
X0089852Y0142279D01*
X0089661Y0143878D02*
X0096417Y0143878D01*
X0097323Y0145476D02*
X0088999Y0145476D01*
X0087861Y0147075D02*
X0099361Y0147075D01*
X0101419Y0147075D02*
X0102181Y0147075D01*
X0102181Y0147616D02*
X0102181Y0142260D01*
X0101419Y0142260D01*
X0101419Y0141498D01*
X0102181Y0141498D01*
X0102181Y0142260D01*
X0107537Y0142260D01*
X0107537Y0142330D01*
X0107396Y0143222D01*
X0107117Y0144081D01*
X0106707Y0144886D01*
X0106176Y0145616D01*
X0105537Y0146255D01*
X0104807Y0146785D01*
X0104002Y0147195D01*
X0103143Y0147474D01*
X0102252Y0147616D01*
X0102181Y0147616D01*
X0104239Y0147075D02*
X0115739Y0147075D01*
X0115431Y0148673D02*
X0085929Y0148673D01*
X0072368Y0159863D02*
X0063666Y0159863D01*
X0064356Y0158265D02*
X0070769Y0158265D01*
X0069171Y0156666D02*
X0059083Y0156666D01*
X0059083Y0156517D02*
X0064537Y0156517D01*
X0064537Y0156348D01*
X0064396Y0155457D01*
X0064117Y0154598D01*
X0063707Y0153793D01*
X0063176Y0153063D01*
X0062537Y0152424D01*
X0061807Y0151893D01*
X0061002Y0151483D01*
X0060143Y0151204D01*
X0059252Y0151063D01*
X0059083Y0151063D01*
X0059083Y0156517D01*
X0058517Y0156666D02*
X0036537Y0156666D01*
X0036537Y0158265D02*
X0053244Y0158265D01*
X0053934Y0159863D02*
X0035906Y0159863D01*
X0035080Y0161462D02*
X0055456Y0161462D01*
X0062144Y0161462D02*
X0135016Y0161462D01*
X0147119Y0148673D02*
X0148701Y0148673D01*
X0148701Y0147075D02*
X0144828Y0147075D01*
X0114601Y0145476D02*
X0106277Y0145476D01*
X0107183Y0143878D02*
X0113939Y0143878D01*
X0113748Y0142279D02*
X0107537Y0142279D01*
X0107537Y0141498D02*
X0102181Y0141498D01*
X0102181Y0136142D01*
X0102252Y0136142D01*
X0103143Y0136283D01*
X0104002Y0136562D01*
X0104807Y0136972D01*
X0105537Y0137503D01*
X0106176Y0138141D01*
X0106707Y0138872D01*
X0107117Y0139676D01*
X0107396Y0140535D01*
X0107537Y0141427D01*
X0107537Y0141498D01*
X0107419Y0140681D02*
X0113748Y0140681D01*
X0114269Y0139082D02*
X0106814Y0139082D01*
X0105511Y0137484D02*
X0114938Y0137484D01*
X0102181Y0137484D02*
X0101419Y0137484D01*
X0101419Y0139082D02*
X0102181Y0139082D01*
X0102181Y0140681D02*
X0101419Y0140681D01*
X0101419Y0142279D02*
X0102181Y0142279D01*
X0102181Y0143878D02*
X0101419Y0143878D01*
X0101419Y0145476D02*
X0102181Y0145476D01*
X0102958Y0119900D02*
X0093641Y0119900D01*
X0063500Y0134287D02*
X0054255Y0134287D01*
X0053754Y0135885D02*
X0063500Y0135885D01*
X0063500Y0137484D02*
X0054400Y0137484D01*
X0054537Y0139082D02*
X0063500Y0139082D01*
X0063500Y0140681D02*
X0054221Y0140681D01*
X0053363Y0142279D02*
X0063500Y0142279D01*
X0063500Y0143878D02*
X0051471Y0143878D01*
X0048800Y0143878D02*
X0048800Y0143878D01*
X0048800Y0142279D02*
X0048800Y0142279D01*
X0048800Y0140681D02*
X0048800Y0140681D01*
X0048800Y0139082D02*
X0048800Y0139082D01*
X0046129Y0143878D02*
X0034100Y0143878D01*
X0034100Y0145476D02*
X0063500Y0145476D01*
X0063500Y0147075D02*
X0034100Y0147075D01*
X0034100Y0148673D02*
X0063500Y0148673D01*
X0063673Y0150272D02*
X0034100Y0150272D01*
X0034812Y0151870D02*
X0055838Y0151870D01*
X0054129Y0153469D02*
X0035795Y0153469D01*
X0036457Y0155068D02*
X0053331Y0155068D01*
X0058517Y0155068D02*
X0059083Y0155068D01*
X0059083Y0153469D02*
X0058517Y0153469D01*
X0058517Y0151870D02*
X0059083Y0151870D01*
X0061762Y0151870D02*
X0064375Y0151870D01*
X0063471Y0153469D02*
X0065974Y0153469D01*
X0067572Y0155068D02*
X0064269Y0155068D01*
X0044237Y0142279D02*
X0033493Y0142279D01*
X0032176Y0140681D02*
X0043379Y0140681D01*
X0043063Y0139082D02*
X0030578Y0139082D01*
X0028979Y0137484D02*
X0043200Y0137484D01*
X0043846Y0135885D02*
X0035687Y0135885D01*
X0036933Y0134287D02*
X0043345Y0134287D01*
X0008883Y0150272D02*
X0008635Y0150272D01*
D17*
X0019288Y0135288D02*
X0028800Y0144800D01*
X0028800Y0156800D01*
X0019288Y0135288D02*
X0019288Y0128800D01*
X0014800Y0123312D01*
X0014800Y0068800D01*
X0021300Y0062300D01*
X0021800Y0061800D01*
X0057800Y0061800D01*
X0058800Y0083800D02*
X0058800Y0087800D01*
X0064800Y0093800D01*
X0107800Y0093800D01*
X0101800Y0083800D02*
X0088800Y0083800D01*
X0101800Y0083800D02*
X0110800Y0074800D01*
X0115800Y0074800D01*
X0118800Y0074800D01*
X0127800Y0083800D01*
X0127800Y0103800D01*
X0127800Y0120800D01*
X0120800Y0127800D01*
X0086800Y0127800D01*
X0082115Y0132485D01*
X0082115Y0141879D01*
X0068800Y0148800D02*
X0075800Y0155800D01*
X0115800Y0155800D01*
X0121485Y0150115D01*
X0121485Y0141879D01*
X0107800Y0113800D02*
X0088800Y0113800D01*
X0068800Y0113800D02*
X0068800Y0128800D01*
X0053800Y0128800D01*
X0048800Y0128800D01*
X0030312Y0128800D01*
X0068800Y0128800D02*
X0068800Y0148800D01*
X0021300Y0062300D02*
X0014800Y0055800D01*
X0014800Y0048800D01*
X0019800Y0042800D01*
X0030800Y0042800D01*
X0040800Y0032800D01*
X0040800Y0025800D01*
X0050800Y0015800D01*
X0076800Y0015800D01*
X0087800Y0026800D01*
X0087800Y0031800D01*
M02*
